<svg width="480" height="350" viewBox="0 0 480 350" fill="none" xmlns="http://www.w3.org/2000/svg">
<path d="M480 176.71C480 188.063 478.935 199.14 476.877 209.895C468.953 251.304 446.494 287.604 415.032 313.366C393.01 331.384 366.524 344.222 337.541 350L301.073 287.021H302.839C333.382 287.021 361.022 274.649 381.058 254.637C393.462 242.295 402.918 226.997 408.333 209.91C411.66 199.43 413.455 188.282 413.455 176.725C413.455 165.183 411.66 154.034 408.333 143.54C394.192 98.871 352.236 66.385 302.839 66.385H137.06L149.639 88.1145L181.715 143.525L193.098 163.174L220.153 209.895H121.474L83.0796 143.525L38.3947 66.3706L0 0.000983025L302.853 0C389.158 0 461.249 61.8869 476.892 143.51C478.935 154.281 480 165.372 480 176.71Z" fill="white"/>
</svg>
