<svg width="512" height="512" viewBox="0 0 512 512" fill="none" xmlns="http://www.w3.org/2000/svg">
  <rect width="512" height="512" rx="128" fill="#FAFAFA"/>
  <g transform="translate(46 104) scale(0.6863)">
    <path d="M611.307 223.827C611.307 238.206 609.951 252.236 607.33 265.859C597.238 318.309 568.635 364.288 528.566 396.919C500.521 419.741 466.789 436.002 429.878 443.32L383.433 363.55H385.682C424.581 363.55 459.782 347.879 485.299 322.531C501.096 306.898 513.139 287.521 520.035 265.878C524.272 252.604 526.558 238.483 526.558 223.845C526.558 209.226 524.272 195.104 520.035 181.812C502.026 125.233 448.593 84.0852 385.682 84.0852H174.554L190.573 111.608L231.425 181.792L245.921 206.681L280.378 265.859H154.704L105.806 181.794L48.8978 84.067L0 0.00124513L385.701 0C495.614 0 587.426 78.3878 607.349 181.774C609.951 195.417 611.307 209.465 611.307 223.827Z" fill="#04010E"/>
  </g>
</svg>
