<svg width="2533" height="354" viewBox="0 0 2533 354" fill="none" xmlns="http://www.w3.org/2000/svg">
<path d="M484.059 178.631C484.059 190.107 482.985 201.304 480.91 212.176C472.919 254.034 450.27 290.729 418.542 316.771C396.334 334.985 369.624 347.963 340.396 353.803L303.619 290.14H305.4C336.202 290.14 364.075 277.634 384.281 257.404C396.79 244.928 406.326 229.464 411.786 212.191C415.141 201.597 416.952 190.328 416.952 178.645C416.952 166.978 415.141 155.708 411.786 145.1C397.526 99.9454 355.215 67.1064 305.4 67.1064H138.219L150.904 89.0721L183.252 145.084L194.731 164.947L222.015 212.176H122.502L83.7822 145.085L38.7194 67.0919L0 0.000993708L305.415 0C392.449 0 465.15 62.5594 480.926 145.07C482.985 155.958 484.059 167.169 484.059 178.631Z" fill="white"/>
<path d="M610.792 256.196V102.183H683.618C700.633 102.183 715.594 105.337 728.502 111.644C741.41 117.951 751.457 126.825 758.645 138.266C765.979 149.707 769.646 163.348 769.646 179.19C769.646 194.884 765.979 208.525 758.645 220.113C751.457 231.554 741.41 240.428 728.502 246.735C715.594 253.043 700.633 256.196 683.618 256.196H610.792ZM654.356 221.433H681.858C690.659 221.433 698.286 219.82 704.74 216.593C711.341 213.219 716.474 208.379 720.141 202.072C723.808 195.618 725.642 187.99 725.642 179.19C725.642 170.242 723.808 162.615 720.141 156.308C716.474 150 711.341 145.233 704.74 142.006C698.286 138.633 690.659 136.946 681.858 136.946H654.356V221.433ZM840.75 258.176C831.069 258.176 822.341 256.27 814.567 252.456C806.94 248.642 800.926 242.702 796.526 234.634C792.272 226.42 790.145 216.079 790.145 203.612V136.946H831.949V196.791C831.949 206.032 833.636 212.633 837.009 216.593C840.53 220.553 845.443 222.533 851.751 222.533C855.858 222.533 859.598 221.58 862.972 219.673C866.345 217.766 869.059 214.759 871.112 210.652C873.166 206.399 874.193 200.972 874.193 194.371V136.946H915.996V256.196H876.173V222.533L883.873 231.994C879.766 240.795 873.826 247.396 866.052 251.796C858.278 256.05 849.844 258.176 840.75 258.176ZM1017.95 258.176C1007.24 258.176 998.294 255.976 991.107 251.576C984.066 247.176 978.786 240.428 975.266 231.334C971.745 222.24 969.985 210.579 969.985 196.351C969.985 182.417 971.819 170.902 975.486 161.808C979.299 152.714 984.8 145.967 991.987 141.566C999.174 137.166 1007.83 134.966 1017.95 134.966C1028.8 134.966 1038.63 137.459 1047.43 142.446C1056.38 147.434 1063.42 154.547 1068.55 163.788C1073.83 172.882 1076.47 183.737 1076.47 196.351C1076.47 209.112 1073.83 220.113 1068.55 229.354C1063.42 238.448 1056.38 245.562 1047.43 250.696C1038.63 255.683 1028.8 258.176 1017.95 258.176ZM942.923 256.196V92.9421H984.726V156.968L982.526 196.351L982.746 235.735V256.196H942.923ZM1009.15 224.954C1013.84 224.954 1018.02 223.853 1021.69 221.653C1025.5 219.453 1028.51 216.226 1030.71 211.972C1033.06 207.572 1034.23 202.365 1034.23 196.351C1034.23 190.337 1033.06 185.277 1030.71 181.17C1028.51 176.916 1025.5 173.689 1021.69 171.489C1018.02 169.289 1013.84 168.189 1009.15 168.189C1004.45 168.189 1000.2 169.289 996.387 171.489C992.72 173.689 989.713 176.916 987.367 181.17C985.166 185.277 984.066 190.337 984.066 196.351C984.066 202.365 985.166 207.572 987.367 211.972C989.713 216.226 992.72 219.453 996.387 221.653C1000.2 223.853 1004.45 224.954 1009.15 224.954ZM1095.9 256.196V136.946H1137.71V256.196H1095.9ZM1116.81 123.745C1109.18 123.745 1103.02 121.618 1098.32 117.364C1093.63 113.111 1091.28 107.83 1091.28 101.523C1091.28 95.2157 1093.63 89.9352 1098.32 85.6815C1103.02 81.4278 1109.18 79.301 1116.81 79.301C1124.43 79.301 1130.59 81.3545 1135.29 85.4615C1139.98 89.4219 1142.33 94.5556 1142.33 100.863C1142.33 107.463 1139.98 112.964 1135.29 117.364C1130.74 121.618 1124.58 123.745 1116.81 123.745ZM1164.88 256.196V136.946H1204.7V170.829L1197 160.928C1201.55 152.274 1207.78 145.82 1215.7 141.566C1223.62 137.166 1232.57 134.966 1242.54 134.966C1251.78 134.966 1260.14 136.873 1267.62 140.686C1275.11 144.353 1280.97 150.074 1285.23 157.848C1289.63 165.622 1291.83 175.669 1291.83 187.99V256.196H1250.02V194.811C1250.02 186.304 1248.26 180.143 1244.74 176.329C1241.37 172.369 1236.6 170.389 1230.44 170.389C1226.04 170.389 1222.01 171.416 1218.34 173.469C1214.67 175.376 1211.81 178.383 1209.76 182.49C1207.71 186.597 1206.68 191.951 1206.68 198.551V256.196H1164.88ZM1361.42 258.176C1351.3 258.176 1341.39 257.003 1331.71 254.656C1322.18 252.309 1314.48 249.376 1308.61 245.855L1321.15 217.253C1326.73 220.627 1333.25 223.34 1340.73 225.394C1348.22 227.3 1355.55 228.254 1362.74 228.254C1369.78 228.254 1374.62 227.52 1377.26 226.054C1380.04 224.587 1381.44 222.607 1381.44 220.113C1381.44 217.766 1380.12 216.079 1377.48 215.053C1374.98 213.879 1371.61 212.999 1367.36 212.412C1363.25 211.826 1358.7 211.166 1353.72 210.432C1348.73 209.699 1343.67 208.746 1338.53 207.572C1333.55 206.252 1328.93 204.345 1324.67 201.852C1320.57 199.211 1317.27 195.691 1314.77 191.291C1312.28 186.89 1311.03 181.316 1311.03 174.569C1311.03 166.942 1313.23 160.195 1317.63 154.327C1322.18 148.314 1328.78 143.62 1337.43 140.246C1346.09 136.726 1356.65 134.966 1369.12 134.966C1377.48 134.966 1385.91 135.846 1394.42 137.606C1403.07 139.219 1410.33 141.713 1416.2 145.087L1403.66 173.469C1397.79 170.095 1391.93 167.822 1386.06 166.649C1380.19 165.328 1374.62 164.668 1369.34 164.668C1362.3 164.668 1357.31 165.475 1354.38 167.089C1351.59 168.702 1350.2 170.682 1350.2 173.029C1350.2 175.376 1351.44 177.209 1353.94 178.53C1356.43 179.703 1359.73 180.656 1363.84 181.39C1368.09 181.977 1372.71 182.637 1377.7 183.37C1382.68 183.957 1387.67 184.91 1392.66 186.23C1397.79 187.55 1402.41 189.531 1406.52 192.171C1410.77 194.664 1414.15 198.111 1416.64 202.512C1419.13 206.765 1420.38 212.266 1420.38 219.013C1420.38 226.347 1418.11 232.948 1413.56 238.815C1409.16 244.682 1402.56 249.376 1393.76 252.896C1385.1 256.416 1374.32 258.176 1361.42 258.176ZM1473.16 234.194L1474.26 184.25L1522.88 136.946H1572.39L1518.48 192.611L1497.14 209.772L1473.16 234.194ZM1438.4 256.196V92.9421H1480.2V256.196H1438.4ZM1525.96 256.196L1489.44 210.432L1515.4 178.31L1576.57 256.196H1525.96ZM1603.03 300.86C1596.72 300.86 1590.34 299.833 1583.89 297.78C1577.58 295.873 1572.45 293.306 1568.49 290.079L1583.01 260.817C1585.5 263.017 1588.36 264.704 1591.59 265.877C1594.96 267.197 1598.26 267.857 1601.49 267.857C1606.04 267.857 1609.63 266.831 1612.27 264.777C1614.91 262.724 1617.18 259.497 1619.09 255.096L1624.59 241.235L1627.89 237.055L1668.38 136.946H1708.2L1656.71 261.037C1652.61 271.304 1647.84 279.298 1642.41 285.019C1637.13 290.886 1631.19 294.993 1624.59 297.34C1618.14 299.687 1610.95 300.86 1603.03 300.86ZM1619.31 261.257L1566.73 136.946H1609.63L1648.35 233.314L1619.31 261.257ZM1839.14 259.277C1826.52 259.277 1814.35 257.736 1802.62 254.656C1791.03 251.429 1781.57 247.322 1774.23 242.335L1788.54 210.212C1795.43 214.613 1803.35 218.28 1812.3 221.213C1821.39 224 1830.41 225.394 1839.36 225.394C1845.37 225.394 1850.21 224.88 1853.88 223.853C1857.55 222.68 1860.19 221.213 1861.8 219.453C1863.56 217.546 1864.44 215.346 1864.44 212.853C1864.44 209.332 1862.83 206.545 1859.6 204.492C1856.37 202.438 1852.19 200.751 1847.06 199.431C1841.93 198.111 1836.21 196.791 1829.9 195.471C1823.74 194.151 1817.5 192.464 1811.2 190.411C1805.04 188.357 1799.39 185.717 1794.26 182.49C1789.12 179.116 1784.94 174.789 1781.71 169.509C1778.49 164.082 1776.87 157.261 1776.87 149.047C1776.87 139.806 1779.37 131.445 1784.35 123.965C1789.49 116.484 1797.12 110.47 1807.24 105.923C1817.36 101.376 1829.97 99.1027 1845.08 99.1027C1855.2 99.1027 1865.1 100.276 1874.78 102.623C1884.61 104.823 1893.34 108.123 1900.96 112.524L1887.54 144.867C1880.21 140.906 1872.95 137.973 1865.76 136.066C1858.57 134.012 1851.61 132.986 1844.86 132.986C1838.85 132.986 1834.01 133.646 1830.34 134.966C1826.67 136.139 1824.03 137.753 1822.42 139.806C1820.8 141.86 1820 144.207 1820 146.847C1820 150.22 1821.54 152.934 1824.62 154.988C1827.85 156.894 1832.03 158.508 1837.16 159.828C1842.44 161.001 1848.16 162.248 1854.32 163.568C1860.63 164.888 1866.86 166.575 1873.02 168.629C1879.33 170.536 1885.05 173.176 1890.18 176.549C1895.32 179.776 1899.42 184.103 1902.5 189.531C1905.73 194.811 1907.35 201.485 1907.35 209.552C1907.35 218.5 1904.78 226.787 1899.64 234.414C1894.66 241.895 1887.1 247.909 1876.98 252.456C1867.01 257.003 1854.39 259.277 1839.14 259.277ZM1978.73 258.176C1963.48 258.176 1951.6 254.436 1943.09 246.955C1934.58 239.328 1930.33 227.887 1930.33 212.633V110.324H1972.13V212.192C1972.13 216.446 1973.31 219.82 1975.65 222.313C1978 224.66 1981.01 225.834 1984.67 225.834C1989.66 225.834 1993.91 224.587 1997.43 222.093L2007.78 251.356C2004.26 253.703 1999.93 255.39 1994.79 256.416C1989.66 257.59 1984.31 258.176 1978.73 258.176ZM1912.95 167.969V136.946H1999.41V167.969H1912.95ZM2074.06 258.176C2064.38 258.176 2055.65 256.27 2047.88 252.456C2040.25 248.642 2034.24 242.702 2029.84 234.634C2025.58 226.42 2023.46 216.079 2023.46 203.612V136.946H2065.26V196.791C2065.26 206.032 2066.95 212.633 2070.32 216.593C2073.84 220.553 2078.75 222.533 2085.06 222.533C2089.17 222.533 2092.91 221.58 2096.28 219.673C2099.66 217.766 2102.37 214.759 2104.42 210.652C2106.48 206.399 2107.5 200.972 2107.5 194.371V136.946H2149.31V256.196H2109.48V222.533L2117.18 231.994C2113.08 240.795 2107.14 247.396 2099.36 251.796C2091.59 256.05 2083.15 258.176 2074.06 258.176ZM2228.16 258.176C2217.3 258.176 2207.4 255.683 2198.45 250.696C2189.65 245.562 2182.61 238.448 2177.33 229.354C2172.05 220.113 2169.41 209.112 2169.41 196.351C2169.41 183.737 2172.05 172.882 2177.33 163.788C2182.61 154.547 2189.65 147.434 2198.45 142.446C2207.4 137.459 2217.3 134.966 2228.16 134.966C2238.42 134.966 2247.08 137.166 2254.12 141.566C2261.31 145.967 2266.73 152.714 2270.4 161.808C2274.07 170.902 2275.9 182.417 2275.9 196.351C2275.9 210.579 2274.14 222.24 2270.62 231.334C2267.1 240.428 2261.82 247.176 2254.78 251.576C2247.74 255.976 2238.86 258.176 2228.16 258.176ZM2236.96 224.954C2241.65 224.954 2245.83 223.853 2249.5 221.653C2253.31 219.453 2256.32 216.226 2258.52 211.972C2260.72 207.572 2261.82 202.365 2261.82 196.351C2261.82 190.337 2260.72 185.277 2258.52 181.17C2256.32 176.916 2253.31 173.689 2249.5 171.489C2245.83 169.289 2241.65 168.189 2236.96 168.189C2232.12 168.189 2227.79 169.289 2223.98 171.489C2220.31 173.689 2217.38 176.916 2215.18 181.17C2212.98 185.277 2211.88 190.337 2211.88 196.351C2211.88 202.365 2212.98 207.572 2215.18 211.972C2217.38 216.226 2220.31 219.453 2223.98 221.653C2227.79 223.853 2232.12 224.954 2236.96 224.954ZM2263.14 256.196V235.735L2263.36 196.351L2261.16 156.968V92.9421H2302.96V256.196H2263.14ZM2329.86 256.196V136.946H2371.66V256.196H2329.86ZM2350.76 123.745C2343.13 123.745 2336.97 121.618 2332.28 117.364C2327.59 113.111 2325.24 107.83 2325.24 101.523C2325.24 95.2157 2327.59 89.9352 2332.28 85.6815C2336.97 81.4278 2343.13 79.301 2350.76 79.301C2358.39 79.301 2364.55 81.3545 2369.24 85.4615C2373.94 89.4219 2376.28 94.5556 2376.28 100.863C2376.28 107.463 2373.94 112.964 2369.24 117.364C2364.7 121.618 2358.53 123.745 2350.76 123.745ZM2458.68 258.176C2445.62 258.176 2434.03 255.536 2423.91 250.256C2413.79 244.975 2405.8 237.715 2399.93 228.474C2394.21 219.086 2391.35 208.379 2391.35 196.351C2391.35 184.323 2394.21 173.689 2399.93 164.448C2405.8 155.208 2413.79 148.02 2423.91 142.886C2434.03 137.606 2445.62 134.966 2458.68 134.966C2471.73 134.966 2483.32 137.606 2493.44 142.886C2503.71 148.02 2511.7 155.208 2517.42 164.448C2523.14 173.689 2526 184.323 2526 196.351C2526 208.379 2523.14 219.086 2517.42 228.474C2511.7 237.715 2503.71 244.975 2493.44 250.256C2483.32 255.536 2471.73 258.176 2458.68 258.176ZM2458.68 224.954C2463.52 224.954 2467.77 223.853 2471.44 221.653C2475.25 219.453 2478.26 216.226 2480.46 211.972C2482.66 207.572 2483.76 202.365 2483.76 196.351C2483.76 190.337 2482.66 185.277 2480.46 181.17C2478.26 176.916 2475.25 173.689 2471.44 171.489C2467.77 169.289 2463.52 168.189 2458.68 168.189C2453.98 168.189 2449.73 169.289 2445.91 171.489C2442.25 173.689 2439.24 176.916 2436.89 181.17C2434.69 185.277 2433.59 190.337 2433.59 196.351C2433.59 202.365 2434.69 207.572 2436.89 211.972C2439.24 216.226 2442.25 219.453 2445.91 221.653C2449.73 223.853 2453.98 224.954 2458.68 224.954Z" fill="white"/>
</svg>
